<?xml version="1.0" encoding="UTF-8" standalone="no"?>
<svg
   enable-background="new 0 0 256 256"
   viewBox="0 0 256 256"
   version="1.1"
   id="svg1"
   sodipodi:docname="improved-icon.svg"
   inkscape:version="1.3.2 (091e20ef0f, 2023-11-25, custom)"
   xmlns:inkscape="http://www.inkscape.org/namespaces/inkscape"
   xmlns:sodipodi="http://sodipodi.sourceforge.net/DTD/sodipodi-0.dtd"
   xmlns="http://www.w3.org/2000/svg"
   xmlns:svg="http://www.w3.org/2000/svg">
  <defs
     id="defs1" />
  <sodipodi:namedview
     id="namedview1"
     pagecolor="#ffffff"
     bordercolor="#111111"
     borderopacity="1"
     inkscape:showpageshadow="0"
     inkscape:pageopacity="0"
     inkscape:pagecheckerboard="1"
     inkscape:deskcolor="#d1d1d1"
     inkscape:zoom="1.9609375"
     inkscape:cx="128"
     inkscape:cy="128"
     inkscape:window-width="1366"
     inkscape:window-height="706"
     inkscape:window-x="0"
     inkscape:window-y="0"
     inkscape:window-maximized="1"
     inkscape:current-layer="svg1" />
  <path
     d="m234.2 26.9h7.7l4.1 7.6-35.1 11.3-88.6 88.7c1.7 3.1 4.2 6.4 7.9 9.8 16.8 15.4 39.4-16.4 35.6 1.2-5.6 25.9-39 23.9-42.5 41-2 10.1-14.4 36.5-31.9 44.3-17.7 7.9-42.6-4.8-59-21.8-16.2-16.8-27.4-42.1-20.2-60.2 7.5-19.1 36.5-28 45.3-30.4 20.5-5.8 21.8-42.9 50.4-53.9 24.2-9.3-7.2 17.5 1.8 38.6 2.5 5.9 6.9 6.8 9.3 9.4l82.3-76.7s2.5-2.3 2.9-4.1c.5-1.8-1.3-5.1-1.3-5.1h7.8s-.1-.1-.1-.1c-.9-.9-.9-2.4 0-3.3s2.4-.9 3.3 0 .9 2.4 0 3.3c0 0 0 0-.1.1h3.5c-.9-.9-.9-2.4 0-3.3s2.5-.9 3.4.1c.9.9.9 2.4 0 3.3h3.3c-.9-.9-.8-2.4.1-3.3s2.4-.9 3.3 0 .9 2.4 0 3.3h3.2c-.8-.9-.7-2.4.2-3.2.9-.9 2.4-.9 3.3 0 .9 1.1.9 2.5.1 3.4zm-117.6 113.5c2.1 3.8 5.2 7.5 9.7 10.6 17.4 12.1 27.6-1.2 24.3 3.9s-29.8 12.4-33.5 24.9c-3 10.3-13.3 36-28.3 42.8s-36.2-5.9-50-20.2c-13.6-14.1-24.8-33.5-18.7-49 6.5-16.2 36.7-26.1 44.1-28.2 17.4-5 19.4-31.1 33.9-43.6 14.4-12.5-4 2.3 1.8 21 2.8 8.9 9.6 11.4 11.4 14.3.2.4.3 1.2.4 2.4l-12 11.2-6.6-6.8-13.7 13.2 26.3 27.3 13.7-13.2-6.4-7zm-23.5-10.1-6.8 6.6 19.8 20.5 6.8-6.6zm-20.3 13-13.7 13.2 26.3 27.3 13.7-13.2zm-.2 6.7-6.8 6.6 19.8 20.5 6.8-6.6zm-20.3 13.1-3.4 3.3 26.3 27.3 3.4-3.3zm19.2 54c1.8 1.9 7.1-.3 11.8-4.8 4.7-4.6 7.1-9.8 5.2-11.7-1.8-1.9-7.1.3-11.8 4.8-4.7 4.6-7.1 9.8-5.2 11.7zm60.6-108c-.9-.9-2.5-1-3.4-.1s-1 2.4 0 3.4l3.3 3.4c.9.9 2.5 1 3.4.1s1-2.4 0-3.4zm-17.1 16.5c-.9-.9-2.5-1-3.4-.1s-1 2.4 0 3.4l3.3 3.4c.9.9 2.5 1 3.4.1s1-2.4 0-3.4zm34.1-32.9c-.9-.9-2.5-1-3.4-.1s-1 2.4 0 3.4l3.3 3.4c.9.9 2.5 1 3.4.1s1-2.4 0-3.4zm17.1-16.5c-.9-.9-2.5-1-3.4-.1s-1 2.4 0 3.4l3.3 3.4c.9.9 2.5 1 3.4.1s1-2.4 0-3.4zm13.6-13.2c-.9-.9-2.5-1-3.4-.1s-1 2.4 0 3.4l3.3 3.4c.9.9 2.5 1 3.4.1s1-2.4 0-3.4zm10.2-9.9c-.9-.9-2.5-1-3.4-.1s-1 2.4 0 3.4l3.3 3.4c.9.9 2.5 1 3.4.1s1-2.4 0-3.4zm10.3-9.8c-.9-.9-2.5-1-3.4-.1s-1 2.4 0 3.4l3.3 3.4c.9.9 2.5 1 3.4.1s1-2.4 0-3.4zm-117.4 79.3c1.3 0 2.4-1.1 2.4-2.4s-1.1-2.4-2.4-2.4-2.4 1.1-2.4 2.4c0 1.4 1.1 2.4 2.4 2.4zm9.5-9.5c1.3 0 2.4-1.1 2.4-2.4s-1.1-2.4-2.4-2.4-2.4 1.1-2.4 2.4c0 1.4 1.1 2.4 2.4 2.4z"
     id="path1"
     style="stroke:#00b5c1;stroke-opacity:1;stroke-width:8.5;stroke-dasharray:none;fill:#000000;fill-opacity:0" />
</svg>
